<svg xmlns="http://www.w3.org/2000/svg" xmlns:xlink="http://www.w3.org/1999/xlink" width="449.61" height="483.197" viewBox="0 0 449.61 483.197"><defs><style>.a,.h,.m,.n,.o{fill:none;}.b{fill:#5fd396;}.c{clip-path:url(#a);}.d{fill:#050646;}.e{fill:#fff;}.f{fill:#b3ffd5;}.g{fill:#191963;}.h{stroke:#191963;}.h,.m,.n{stroke-linecap:round;stroke-linejoin:round;}.i{fill:#4bb279;}.j{fill:#d7ffe9;}.k{clip-path:url(#b);}.l{fill:#a5f9cb;}.m{stroke:#050646;}.n{stroke:#fff;}.o{stroke:#5fd396;stroke-miterlimit:10;}</style><clipPath id="a"><rect class="a" width="449.61" height="483.197"/></clipPath><clipPath id="b"><path class="a" d="M95.916,160.031c-24.007,81.515-40.757,164.145-50.25,188.71S44.55,443.1,78.048,408.484s51.366-145.165,46.342-171.965,3.133-73.578,16.535-77.486,30.363-22.452,30.363-22.452,26.673,29.243,41.188,32.034,9.908,33.96,14.375,50.153,2.5,47.344,15.9,56.835S226,409.041,281.836,383.357s-5.381-295.281-66.8-301.423c-12.006-1.2-22.963-2.063-32.985-2.063-41.246,0-66.826,14.58-86.14,80.16" transform="translate(-42.01 -79.871)"/></clipPath></defs><path class="b" d="M187.383,104.332l-44.3,77.526L152.2,268.5h56.678l9.773-50.815-7.817-100.327Z" transform="translate(93.474 68.159)"/><g class="c"><path class="d" d="M15.275,389.477S-3.389,162.235,154.323,162.989s232.553-130,270.293,228.528Z" transform="translate(9.278 91.682)"/><path class="e" d="M151.751,201.245h0a21.434,21.434,0,0,1-21.433-21.433V129.986a21.433,21.433,0,0,1,42.866,0v49.825a21.434,21.434,0,0,1-21.433,21.433" transform="translate(85.135 70.916)"/><path class="e" d="M220.354,124.27c0,35.8-25.515,64.821-56.99,64.821s-56.989-29.022-56.989-64.821,25.514-64.822,56.989-64.822,56.99,29.022,56.99,64.822" transform="translate(69.494 38.837)"/><path class="b" d="M218.126,43.287C170.019,25.3,137.761,40.4,117.477,109.271S83.041,247.956,75.022,268.713s-.944,79.722,27.36,50.473c23.9-24.7,38.388-95.165,39.753-130.112a29.023,29.023,0,1,1,.974-57.192c2.662-12.185,7.03-21.89,12.395-23.455,11.322-3.3,25.656-18.968,25.656-18.968s22.534,24.707,34.8,27.064c5.97,1.149,8.108,7.979,9.169,16.26a29.031,29.031,0,1,1,8.924,56.655c-.432,0-.851-.046-1.276-.064,1.539,7.551,4,14.169,8.764,17.543,11.322,8.02-14.15,112.743,33.021,91.043S266.974,61.546,218.126,43.287" transform="translate(46.994 23.731)"/><path class="f" d="M172.542,94.668a29.008,29.008,0,0,0,7.648,56.59c-2.118-10.393-2.487-22.554-4.672-30.478-1.938-7.021-1.857-17.376-2.976-26.112" transform="translate(99.581 61.846)"/><path class="b" d="M202.551,122.847A29.015,29.015,0,0,0,164.6,95.226c1.119,8.736,1.038,19.091,2.976,26.112,2.186,7.924,2.554,20.086,4.672,30.478.425.018.845.064,1.275.064a29.033,29.033,0,0,0,29.033-29.033" transform="translate(107.528 61.288)"/><path class="f" d="M114.533,136.138a73.813,73.813,0,0,1,.6,15.177,29,29,0,0,0,.974-57.192c-2.956,13.526-3.809,30.1-1.574,42.015" transform="translate(73.997 61.489)"/><path class="b" d="M94.195,122.847a28.829,28.829,0,0,0,33.4,28.67,73.815,73.815,0,0,0-.6-15.177c-2.235-11.91-1.382-28.489,1.574-42.013a28.948,28.948,0,0,0-34.372,28.521" transform="translate(61.537 61.288)"/><path class="g" d="M131.768,94.7a5,5,0,1,1-5-5,5,5,0,0,1,5,5" transform="translate(79.545 58.596)"/><path class="g" d="M162.075,94.7a5,5,0,1,1-5-5,5,5,0,0,1,5,5" transform="translate(99.345 58.596)"/><path class="h" d="M137.162,104.63s6.091-6.091,8.7.87" transform="translate(89.606 66.742)"/><path class="h" d="M131.373,115.461s15.662,13.051,33.062-.435" transform="translate(85.824 75.145)"/><path class="i" d="M103.293,271.879h0a4.955,4.955,0,0,1-4.953-4.953V167.287a4.953,4.953,0,0,1,9.907,0v99.639a4.955,4.955,0,0,1-4.953,4.953" transform="translate(64.244 106.051)"/><path class="i" d="M172.119,154.142a48.588,48.588,0,1,1-48.588-48.587,48.587,48.587,0,0,1,48.588,48.587" transform="translate(48.96 68.958)"/><path class="j" d="M160.967,150.983a40.594,40.594,0,1,1-40.595-40.593,40.594,40.594,0,0,1,40.595,40.593" transform="translate(52.119 72.117)"/><path class="e" d="M53.558,222.605s41.228-58.763,60.183-58.288,58.989-2.162,50.192,19.056c0,0,7.245,1.293,4.4,12.677,0,0,5.434,1.552,3.882,11.9,0,0,5.434,9.832-8.8,18.371S106.49,260.739,98.985,261s-45.427-38.393-45.427-38.393" transform="translate(34.989 107.345)"/><line class="h" y1="4.657" x2="19.722" transform="translate(180.727 290.572)"/><line class="h" x1="16.973" y2="5.73" transform="translate(187.367 303.003)"/><line class="h" x1="15.891" y2="5.514" transform="translate(192.232 314.896)"/><path class="g" d="M124.662,129.043a5,5,0,1,1-5-5,5,5,0,0,1,5,5" transform="translate(74.903 81.034)"/></g><g transform="translate(69.454 132.05)"><g class="k"><path class="b" d="M160.967,150.983a40.594,40.594,0,1,1-40.595-40.593,40.594,40.594,0,0,1,40.595,40.593" transform="translate(-17.336 -59.933)"/><path class="h" d="M114.442,145.837s8.142,5.281,17.414,5.535" transform="translate(5.309 -36.776)"/></g></g><g class="c"><path class="b" d="M163.659,135.936s10.71-12.945,11.795-18.91,1.354,33.279,1.354,33.279l-9.42-.881Z" transform="translate(106.917 76.049)"/><path class="l" d="M108.669,127.752s46.213,43.078,14.17,51.478c-21.881,3.126-31.455-5.469-31.455-5.469s3.308-44.149,17.285-46.009" transform="translate(59.7 83.459)"/><path class="m" d="M.5,222.62C.5,99.946,99.945.5,222.621.5S444.739,99.946,444.739,222.62,345.293,444.74,222.621,444.74" transform="translate(0.327 0.327)"/><path class="m" d="M401.331,210.325c0,105.488-85.516,191-191,191S19.32,315.814,19.32,210.325s85.516-191,191.006-191" transform="translate(12.622 12.622)"/><path class="b" d="M64.521,40.334a15.26,15.26,0,1,1-15.258-15.26,15.259,15.259,0,0,1,15.258,15.26" transform="translate(22.212 16.381)"/><path class="b" d="M278.811,166.979a8.682,8.682,0,1,1-8.682-8.683,8.682,8.682,0,0,1,8.682,8.683" transform="translate(170.8 103.413)"/><path class="n" d="M98.759,117.831S81.675,126.5,83.777,144.112" transform="translate(54.613 76.978)"/><line class="n" x2="0.974" y2="3.083" transform="translate(139.256 225.473)"/><path class="o" d="M27.336,205.089A177.752,177.752,0,1,1,205.089,382.84" transform="translate(17.858 17.859)"/><path class="o" d="M422.143,216.221c0,113.73-92.2,205.924-205.924,205.924S10.3,329.95,10.3,216.221,102.492,10.3,216.22,10.3" transform="translate(6.726 6.727)"/></g></svg>