<svg xmlns="http://www.w3.org/2000/svg" width="15.458" height="15.456" viewBox="0 0 15.458 15.456"><defs><style>.a{fill:#5fd396;fill-rule:evenodd;}</style></defs><path class="a" d="M15.322,10.764a.464.464,0,0,0-.656,0l-2.588,2.588-.656-.656a.464.464,0,0,0-.656.656l.941.941c.014.018.008.044.025.06a.528.528,0,0,0,.691,0c.017-.016.011-.042.025-.06l2.873-2.873a.464.464,0,0,0,0-.656M8.7,9.192v1.53c.584.14,1.2.3,1.781.454a3.876,3.876,0,0,1,.876-.845c-.719-.2-1.444-.389-1.941-.512A6.385,6.385,0,0,0,11.6,4.931C11.6,2.207,10.806,0,7.246,0S2.9,2.207,2.9,4.931a6.378,6.378,0,0,0,2.195,4.9,20.607,20.607,0,0,0-4.349,1.38,4.22,4.22,0,0,0-.306,4.248H10.2a3.817,3.817,0,0,1-.4-.964H.968a3.748,3.748,0,0,1,.4-2.47A31.361,31.361,0,0,1,5.8,10.737V9.195A5.309,5.309,0,0,1,3.867,4.948c0-2.2.563-3.986,3.379-3.986s3.38,1.785,3.38,3.986A5.31,5.31,0,0,1,8.7,9.192"/></svg>