<svg xmlns="http://www.w3.org/2000/svg" xmlns:xlink="http://www.w3.org/1999/xlink" width="82.538" height="82.538" viewBox="0 0 82.538 82.538"><defs><style>.a{fill:none;}.b{clip-path:url(#a);}.c{fill:#050646;}.d{fill:#fff;}.e{fill:#5fd396;}</style><clipPath id="a"><rect class="a" width="82.538" height="82.538"/></clipPath></defs><g transform="translate(0 0)"><g class="b" transform="translate(0 0)"><path class="c" d="M82.538,41.269A41.269,41.269,0,1,1,41.269,0,41.269,41.269,0,0,1,82.538,41.269" transform="translate(0 -0.001)"/><path class="d" d="M44.711,15.694a14.994,14.994,0,0,0-9.577,2.985,14.991,14.991,0,0,0-9.577-2.985c-10.285,0-17.319,6.463-17.319,16.177s7.033,16.174,17.319,16.174a14.991,14.991,0,0,0,9.577-2.984,14.994,14.994,0,0,0,9.577,2.984c10.285,0,17.319-6.46,17.319-16.174S55,15.694,44.711,15.694M44.1,39.959a11.812,11.812,0,0,1-8.955-3.944V36l-.006.006L35.128,36v.012a11.812,11.812,0,0,1-8.955,3.944c-4.659,0-8.526-2.9-8.526-8.087s3.867-8.09,8.526-8.09a11.818,11.818,0,0,1,8.955,3.944v.012l.006-.006.006.006v-.012A11.818,11.818,0,0,1,44.1,23.781c4.659,0,8.527,2.9,8.527,8.09s-3.869,8.087-8.527,8.087" transform="translate(4.399 8.38)"/><path class="e" d="M48.307,29.408a4.235,4.235,0,1,0,4.235,4.237,4.237,4.237,0,0,0-4.235-4.237" transform="translate(23.533 15.703)"/></g></g></svg>