<svg xmlns="http://www.w3.org/2000/svg" xmlns:xlink="http://www.w3.org/1999/xlink" width="236.231" height="25.828" viewBox="0 0 236.231 25.828"><defs><style>.a{fill:none;}.b{clip-path:url(#a);}.c{fill:#050646;}.d{fill:#5fd396;}</style><clipPath id="a"><rect class="a" width="236.231" height="25.828"/></clipPath></defs><g transform="translate(0 0)"><g class="b" transform="translate(0 0)"><path class="c" d="M13.39,18.473a8.824,8.824,0,0,0,6.7-2.954v6.762a11.207,11.207,0,0,1-7.155,2.231C5.251,24.512,0,19.686,0,12.435S5.251.356,12.931.356a11.2,11.2,0,0,1,7.155,2.232V9.349a8.824,8.824,0,0,0-6.7-2.954c-3.48,0-6.367,2.167-6.367,6.04s2.887,6.039,6.367,6.039" transform="translate(0 0.2)"/><path class="c" d="M26.987.356c7.22,0,12.571,4.858,12.571,12.079s-5.219,12.34-12.571,12.34-12.6-5.119-12.6-12.34S19.9.356,26.987.356m0,18.38c3.545,0,5.776-2.56,5.776-6.3s-2.1-6.3-5.776-6.3c-3.545,0-5.842,2.56-5.842,6.3s2.3,6.3,5.842,6.3" transform="translate(8.1 0.2)"/><path class="c" d="M53.762,1.148V25.271l-15.425-12.8v11.65h-6.1V0L47.625,12.8V1.148Z" transform="translate(18.153 -0.001)"/><path class="c" d="M70.12,1.148V25.271l-15.425-12.8v11.65h-6.1V0L63.983,12.8V1.148Z" transform="translate(27.365 -0.001)"/><path class="c" d="M80.866.734V5.888H71.053v3.38H80.21V14.29H71.053v4.264h9.814v5.154H64.947V.734Z" transform="translate(36.576 0.413)"/><path class="c" d="M90.076,18.473a8.824,8.824,0,0,0,6.7-2.954v6.762a11.207,11.207,0,0,1-7.155,2.231c-7.68,0-12.931-4.826-12.931-12.077S81.937.356,89.617.356a11.2,11.2,0,0,1,7.155,2.232V9.349a8.824,8.824,0,0,0-6.7-2.954c-3.48,0-6.367,2.167-6.367,6.04s2.887,6.039,6.367,6.039" transform="translate(43.187 0.2)"/><path class="c" d="M90.439.734H109.7v5.71h-6.432V23.708h-6.4V6.445H90.439Z" transform="translate(50.933 0.413)"/><path class="c" d="M151.655,1.148V25.271l-15.425-12.8v11.65h-6.1V0l15.393,12.8V1.148Z" transform="translate(73.283 -0.001)"/><path class="d" d="M154.233,15.317A4.316,4.316,0,1,1,149.915,11a4.317,4.317,0,0,1,4.318,4.316" transform="translate(81.998 6.195)"/><path class="d" d="M129.961.816A11.165,11.165,0,0,0,123.02,2.9,11.157,11.157,0,0,0,116.082.816c-7.68,0-12.931,4.824-12.931,12.079s5.251,12.077,12.931,12.077a11.157,11.157,0,0,0,6.939-2.085,11.165,11.165,0,0,0,6.94,2.085c7.68,0,12.931-4.824,12.931-12.077S137.641.816,129.961.816m-.46,18.117a8.635,8.635,0,0,1-6.265-2.537v-.417c-.069.07-.145.139-.216.209-.069-.07-.145-.139-.214-.209V16.4a8.635,8.635,0,0,1-6.265,2.537c-3.48,0-6.367-2.167-6.367-6.039s2.887-6.04,6.367-6.04a8.635,8.635,0,0,1,6.265,2.537v.417c.069-.07.145-.139.214-.209.07.07.147.139.216.209V9.392A8.635,8.635,0,0,1,129.5,6.855c3.48,0,6.367,2.167,6.367,6.04s-2.887,6.039-6.367,6.039" transform="translate(58.092 0.459)"/></g></g></svg>